<mxfile host="65bd71144e">
    <diagram id="9KgbNxF7pnVbjIYk6dXa" name="第 1 页">
        <mxGraphModel dx="1990" dy="783" grid="1" gridSize="10" guides="1" tooltips="1" connect="1" arrows="1" fold="1" page="1" pageScale="1" pageWidth="827" pageHeight="1169" math="0" shadow="0">
            <root>
                <mxCell id="0"/>
                <mxCell id="1" style="locked=1;" parent="0"/>
                <mxCell id="106" value="" style="group" vertex="1" connectable="0" parent="1">
                    <mxGeometry x="-150" y="410" width="760" height="630" as="geometry"/>
                </mxCell>
                <mxCell id="80" value="" style="rounded=1;whiteSpace=wrap;html=1;labelBackgroundColor=none;fontColor=#ffffff;fillColor=#99CCFF;arcSize=3;strokeColor=#006EAF;" vertex="1" parent="106">
                    <mxGeometry width="760" height="630" as="geometry"/>
                </mxCell>
                <mxCell id="81" value="&lt;b&gt;&lt;font color=&quot;#000000&quot;&gt;CacheServer&lt;/font&gt;&lt;/b&gt;" style="text;html=1;strokeColor=none;fillColor=none;align=center;verticalAlign=middle;whiteSpace=wrap;rounded=0;labelBackgroundColor=none;fontColor=#FF0000;" vertex="1" parent="106">
                    <mxGeometry x="7.450980392156863" width="74.50980392156863" height="31.5" as="geometry"/>
                </mxCell>
                <mxCell id="112" value="" style="group" vertex="1" connectable="0" parent="1">
                    <mxGeometry x="-260" y="410" width="80" height="630" as="geometry"/>
                </mxCell>
                <mxCell id="107" value="" style="rounded=1;whiteSpace=wrap;html=1;labelBackgroundColor=none;fontSize=20;fontColor=#000000;fillColor=#4D9900;" vertex="1" parent="112">
                    <mxGeometry width="80" height="630" as="geometry"/>
                </mxCell>
                <mxCell id="108" value="&lt;font style=&quot;font-size: 12px&quot;&gt;&lt;b&gt;Client&lt;/b&gt;&lt;/font&gt;" style="text;html=1;strokeColor=none;fillColor=none;align=center;verticalAlign=middle;whiteSpace=wrap;rounded=0;labelBackgroundColor=none;fontSize=20;fontColor=#000000;" vertex="1" parent="112">
                    <mxGeometry width="60" height="20" as="geometry"/>
                </mxCell>
                <mxCell id="44" value="元素" style="" parent="0"/>
                <mxCell id="103" value="" style="group" vertex="1" connectable="0" parent="44">
                    <mxGeometry x="-100" y="450" width="680" height="570" as="geometry"/>
                </mxCell>
                <mxCell id="82" value="" style="rounded=1;whiteSpace=wrap;html=1;labelBackgroundColor=none;fontColor=#000000;fillColor=#999900;arcSize=3;" vertex="1" parent="103">
                    <mxGeometry width="680" height="570" as="geometry"/>
                </mxCell>
                <mxCell id="83" value="&lt;b&gt;&lt;font color=&quot;#000000&quot;&gt;groups&lt;/font&gt;&lt;/b&gt;" style="text;html=1;strokeColor=none;fillColor=none;align=center;verticalAlign=middle;whiteSpace=wrap;rounded=0;labelBackgroundColor=none;fontColor=#FF0000;" vertex="1" parent="103">
                    <mxGeometry width="70" height="30" as="geometry"/>
                </mxCell>
                <mxCell id="89" value="Map group by &lt;font color=&quot;#ff0000&quot;&gt;groupName&lt;/font&gt;" style="rounded=1;whiteSpace=wrap;html=1;labelBackgroundColor=none;fontColor=#000000;fillColor=#FFCC99;" vertex="1" parent="103">
                    <mxGeometry x="230" y="20" width="190" height="40" as="geometry"/>
                </mxCell>
                <mxCell id="105" value="" style="group" vertex="1" connectable="0" parent="44">
                    <mxGeometry x="-80" y="530" width="460" height="450" as="geometry"/>
                </mxCell>
                <mxCell id="2" value="" style="rounded=1;whiteSpace=wrap;html=1;fillColor=#FF9933;arcSize=2;" vertex="1" parent="105">
                    <mxGeometry width="460" height="450" as="geometry"/>
                </mxCell>
                <mxCell id="3" value="&lt;b&gt;g1&lt;/b&gt;" style="text;html=1;strokeColor=none;fillColor=none;align=center;verticalAlign=middle;whiteSpace=wrap;rounded=0;fontColor=#000000;" vertex="1" parent="105">
                    <mxGeometry width="50" height="30" as="geometry"/>
                </mxCell>
                <mxCell id="21" value="Try to get cache from &lt;font color=&quot;#ff0000&quot;&gt;mainCache&lt;/font&gt;" style="rounded=1;whiteSpace=wrap;html=1;fontColor=#000000;fillColor=#FFCC99;" vertex="1" parent="44">
                    <mxGeometry x="160" y="560" width="130" height="40" as="geometry"/>
                </mxCell>
                <mxCell id="28" value="" style="group" vertex="1" connectable="0" parent="44">
                    <mxGeometry x="-60" y="560" width="180" height="40" as="geometry"/>
                </mxCell>
                <mxCell id="22" value="" style="rounded=1;whiteSpace=wrap;html=1;fillColor=#FFB366;" vertex="1" parent="28">
                    <mxGeometry width="180" height="40" as="geometry"/>
                </mxCell>
                <mxCell id="26" value="&lt;b&gt;mainCache&lt;/b&gt;" style="text;html=1;strokeColor=none;fillColor=none;align=center;verticalAlign=middle;whiteSpace=wrap;rounded=0;fontColor=#000000;" vertex="1" parent="28">
                    <mxGeometry width="80" height="20" as="geometry"/>
                </mxCell>
                <mxCell id="27" value="&lt;font color=&quot;#ff0000&quot;&gt;lru.Cache&lt;/font&gt;" style="text;html=1;strokeColor=none;fillColor=none;align=center;verticalAlign=middle;whiteSpace=wrap;rounded=0;fontColor=#000000;" vertex="1" parent="28">
                    <mxGeometry x="37.5" y="18" width="105" height="20" as="geometry"/>
                </mxCell>
                <mxCell id="30" value="Try to get cache from other nodes" style="rounded=1;whiteSpace=wrap;html=1;fontColor=#000000;fillColor=#FFCC99;" vertex="1" parent="44">
                    <mxGeometry x="160" y="680" width="130" height="40" as="geometry"/>
                </mxCell>
                <mxCell id="31" value="" style="group" vertex="1" connectable="0" parent="44">
                    <mxGeometry x="-40" y="640" width="160" height="200" as="geometry"/>
                </mxCell>
                <mxCell id="32" value="" style="rounded=1;whiteSpace=wrap;html=1;fillColor=#FFB366;arcSize=9;" vertex="1" parent="31">
                    <mxGeometry x="-20" y="10" width="180" height="170" as="geometry"/>
                </mxCell>
                <mxCell id="33" value="&lt;b&gt;HttpPool(peers)&lt;/b&gt;" style="text;html=1;strokeColor=none;fillColor=none;align=center;verticalAlign=middle;whiteSpace=wrap;rounded=0;fontColor=#000000;" vertex="1" parent="31">
                    <mxGeometry x="-20" y="10" width="110" height="20" as="geometry"/>
                </mxCell>
                <mxCell id="35" value="Get node name from &lt;font color=&quot;#ff0000&quot;&gt;consistent hash map&lt;/font&gt;" style="rounded=1;whiteSpace=wrap;html=1;fontColor=#000000;fillColor=#FFCC99;" vertex="1" parent="31">
                    <mxGeometry x="10" y="40" width="120" height="40" as="geometry"/>
                </mxCell>
                <mxCell id="36" value="Pick &lt;font color=&quot;#ff0000&quot;&gt;peer&lt;/font&gt; with node name" style="rounded=1;whiteSpace=wrap;html=1;fontColor=#000000;fillColor=#FFCC99;" vertex="1" parent="31">
                    <mxGeometry x="10" y="120" width="120" height="40" as="geometry"/>
                </mxCell>
                <mxCell id="43" value="Get cache from by calling &lt;font color=&quot;#ff0000&quot;&gt;another node&lt;/font&gt;&amp;nbsp;" style="rounded=1;whiteSpace=wrap;html=1;fontColor=#000000;fillColor=#FFCC99;" vertex="1" parent="44">
                    <mxGeometry x="160" y="760" width="130" height="40" as="geometry"/>
                </mxCell>
                <mxCell id="56" value="Get cache with &lt;font color=&quot;#ff0000&quot;&gt;getter&lt;/font&gt;&amp;nbsp;" style="rounded=1;whiteSpace=wrap;html=1;fontColor=#000000;fillColor=#FFCC99;" vertex="1" parent="44">
                    <mxGeometry x="160" y="840" width="130" height="40" as="geometry"/>
                </mxCell>
                <mxCell id="58" value="Save cache to &lt;font color=&quot;#ff0000&quot;&gt;mainCache&lt;/font&gt;" style="rounded=1;whiteSpace=wrap;html=1;fontColor=#000000;fillColor=#FFCC99;" vertex="1" parent="44">
                    <mxGeometry x="160" y="920" width="130" height="40" as="geometry"/>
                </mxCell>
                <mxCell id="95" value="" style="group" vertex="1" connectable="0" parent="44">
                    <mxGeometry x="520" y="530" width="40" height="450" as="geometry"/>
                </mxCell>
                <mxCell id="96" value="" style="rounded=1;whiteSpace=wrap;html=1;fillColor=#FF9933;" vertex="1" parent="95">
                    <mxGeometry width="40" height="450" as="geometry"/>
                </mxCell>
                <mxCell id="97" value="&lt;b&gt;gn&lt;/b&gt;" style="text;html=1;strokeColor=none;fillColor=none;align=center;verticalAlign=middle;whiteSpace=wrap;rounded=0;fontColor=#000000;" vertex="1" parent="95">
                    <mxGeometry width="40" height="30" as="geometry"/>
                </mxCell>
                <mxCell id="92" value="" style="group" vertex="1" connectable="0" parent="44">
                    <mxGeometry x="440" y="530" width="40" height="450" as="geometry"/>
                </mxCell>
                <mxCell id="93" value="" style="rounded=1;whiteSpace=wrap;html=1;fillColor=#FF9933;" vertex="1" parent="92">
                    <mxGeometry width="40" height="450" as="geometry"/>
                </mxCell>
                <mxCell id="94" value="&lt;b&gt;g3&lt;/b&gt;" style="text;html=1;strokeColor=none;fillColor=none;align=center;verticalAlign=middle;whiteSpace=wrap;rounded=0;fontColor=#000000;" vertex="1" parent="92">
                    <mxGeometry width="40" height="30" as="geometry"/>
                </mxCell>
                <mxCell id="99" value="&lt;b&gt;&lt;font style=&quot;font-size: 20px&quot;&gt;···&lt;/font&gt;&lt;/b&gt;" style="text;html=1;strokeColor=none;fillColor=none;align=center;verticalAlign=middle;whiteSpace=wrap;rounded=0;labelBackgroundColor=none;fontColor=#000000;" vertex="1" parent="44">
                    <mxGeometry x="480" y="730" width="40" height="30" as="geometry"/>
                </mxCell>
                <mxCell id="102" value="" style="group" vertex="1" connectable="0" parent="44">
                    <mxGeometry x="390" y="530" width="180" height="470" as="geometry"/>
                </mxCell>
                <mxCell id="6" value="" style="rounded=1;whiteSpace=wrap;html=1;fillColor=#FF9933;" vertex="1" parent="102">
                    <mxGeometry width="40" height="450" as="geometry"/>
                </mxCell>
                <mxCell id="7" value="&lt;b&gt;g2&lt;/b&gt;" style="text;html=1;strokeColor=none;fillColor=none;align=center;verticalAlign=middle;whiteSpace=wrap;rounded=0;fontColor=#000000;" vertex="1" parent="102">
                    <mxGeometry width="40" height="30" as="geometry"/>
                </mxCell>
                <mxCell id="118" value="" style="group" vertex="1" connectable="0" parent="44">
                    <mxGeometry x="-252.5" y="460" width="65" height="70" as="geometry"/>
                </mxCell>
                <mxCell id="18" value="" style="rounded=1;whiteSpace=wrap;html=1;fontColor=#000000;fillColor=#FFB366;" vertex="1" parent="118">
                    <mxGeometry width="65" height="60" as="geometry"/>
                </mxCell>
                <mxCell id="114" value="&lt;b&gt;Request&lt;/b&gt;" style="text;html=1;strokeColor=none;fillColor=none;align=center;verticalAlign=middle;whiteSpace=wrap;rounded=0;labelBackgroundColor=none;fontSize=12;fontColor=#000000;" vertex="1" parent="118">
                    <mxGeometry x="2.5" y="6" width="60" height="10" as="geometry"/>
                </mxCell>
                <mxCell id="115" value="&lt;font color=&quot;#ff0000&quot;&gt;group:g1 key:k1&lt;/font&gt;&amp;nbsp;" style="text;html=1;strokeColor=none;fillColor=none;align=center;verticalAlign=middle;whiteSpace=wrap;rounded=0;labelBackgroundColor=none;fontSize=12;fontColor=#000000;" vertex="1" parent="118">
                    <mxGeometry x="2.5" y="20" width="60" height="30" as="geometry"/>
                </mxCell>
                <mxCell id="123" value="" style="group" vertex="1" connectable="0" parent="44">
                    <mxGeometry x="-252.5" y="910" width="65" height="60" as="geometry"/>
                </mxCell>
                <mxCell id="120" value="" style="rounded=1;whiteSpace=wrap;html=1;fontColor=#000000;fillColor=#FFB366;" vertex="1" parent="123">
                    <mxGeometry width="65" height="60" as="geometry"/>
                </mxCell>
                <mxCell id="121" value="&lt;b&gt;Response&lt;/b&gt;" style="text;html=1;strokeColor=none;fillColor=none;align=center;verticalAlign=middle;whiteSpace=wrap;rounded=0;labelBackgroundColor=none;fontSize=12;fontColor=#000000;" vertex="1" parent="123">
                    <mxGeometry x="2.5" y="10" width="60" height="10" as="geometry"/>
                </mxCell>
                <mxCell id="122" value="&lt;font color=&quot;#ff0000&quot;&gt;val:[]byte&lt;/font&gt;" style="text;html=1;strokeColor=none;fillColor=none;align=center;verticalAlign=middle;whiteSpace=wrap;rounded=0;labelBackgroundColor=none;fontSize=12;fontColor=#000000;" vertex="1" parent="123">
                    <mxGeometry x="2.5" y="30" width="57.5" height="20" as="geometry"/>
                </mxCell>
                <mxCell id="59" value="arrows" style="" parent="0"/>
                <mxCell id="60" style="edgeStyle=none;rounded=0;html=1;exitX=1;exitY=0.5;exitDx=0;exitDy=0;entryX=0;entryY=0.5;entryDx=0;entryDy=0;fontColor=#FF0000;startArrow=none;startFill=0;strokeColor=#000000;strokeWidth=3;" edge="1" parent="59" source="22" target="21">
                    <mxGeometry relative="1" as="geometry"/>
                </mxCell>
                <mxCell id="61" style="edgeStyle=none;rounded=0;html=1;exitX=0.5;exitY=1;exitDx=0;exitDy=0;entryX=0.5;entryY=0;entryDx=0;entryDy=0;fontColor=#FF0000;startArrow=none;startFill=0;strokeColor=#000000;strokeWidth=3;" edge="1" parent="59" source="21" target="30">
                    <mxGeometry relative="1" as="geometry"/>
                </mxCell>
                <mxCell id="78" value="Fail" style="edgeLabel;html=1;align=center;verticalAlign=middle;resizable=0;points=[];fontColor=#000000;labelBackgroundColor=none;" vertex="1" connectable="0" parent="61">
                    <mxGeometry x="-0.3583" relative="1" as="geometry">
                        <mxPoint x="-15" y="14" as="offset"/>
                    </mxGeometry>
                </mxCell>
                <mxCell id="62" style="edgeStyle=none;rounded=0;html=1;exitX=0;exitY=0.5;exitDx=0;exitDy=0;entryX=1;entryY=0.5;entryDx=0;entryDy=0;fontColor=#FF0000;startArrow=none;startFill=0;strokeColor=#000000;strokeWidth=3;" edge="1" parent="59" source="30" target="35">
                    <mxGeometry relative="1" as="geometry"/>
                </mxCell>
                <mxCell id="64" style="edgeStyle=none;rounded=0;html=1;exitX=1;exitY=0.5;exitDx=0;exitDy=0;entryX=0;entryY=0.5;entryDx=0;entryDy=0;fontColor=#FF0000;startArrow=none;startFill=0;strokeColor=#000000;strokeWidth=3;" edge="1" parent="59" source="36" target="43">
                    <mxGeometry relative="1" as="geometry"/>
                </mxCell>
                <mxCell id="77" value="Success" style="edgeLabel;html=1;align=center;verticalAlign=middle;resizable=0;points=[];fontColor=#000000;labelBackgroundColor=none;" vertex="1" connectable="0" parent="64">
                    <mxGeometry x="-0.4762" y="1" relative="1" as="geometry">
                        <mxPoint x="12" y="-9" as="offset"/>
                    </mxGeometry>
                </mxCell>
                <mxCell id="66" style="edgeStyle=none;rounded=0;html=1;exitX=0.5;exitY=1;exitDx=0;exitDy=0;entryX=0.5;entryY=0;entryDx=0;entryDy=0;fontColor=#FF0000;startArrow=none;startFill=0;strokeColor=#000000;strokeWidth=3;" edge="1" parent="59" source="56" target="58">
                    <mxGeometry relative="1" as="geometry"/>
                </mxCell>
                <mxCell id="72" style="edgeStyle=orthogonalEdgeStyle;rounded=0;html=1;exitX=0.5;exitY=1;exitDx=0;exitDy=0;fontColor=#000000;startArrow=none;startFill=0;strokeColor=#000000;strokeWidth=3;elbow=vertical;" edge="1" parent="59" source="58">
                    <mxGeometry relative="1" as="geometry">
                        <mxPoint x="-220" y="970" as="targetPoint"/>
                        <Array as="points">
                            <mxPoint x="225" y="1000"/>
                            <mxPoint x="-220" y="1000"/>
                        </Array>
                    </mxGeometry>
                </mxCell>
                <mxCell id="63" style="edgeStyle=none;rounded=0;html=1;exitX=0.5;exitY=1;exitDx=0;exitDy=0;fontColor=#FF0000;startArrow=none;startFill=0;strokeColor=#000000;strokeWidth=3;" edge="1" parent="59" source="35" target="36">
                    <mxGeometry relative="1" as="geometry"/>
                </mxCell>
                <mxCell id="73" style="edgeStyle=orthogonalEdgeStyle;rounded=0;html=1;exitX=1;exitY=0.5;exitDx=0;exitDy=0;fontColor=#000000;startArrow=none;startFill=0;strokeColor=#000000;strokeWidth=3;elbow=vertical;entryX=0.5;entryY=1;entryDx=0;entryDy=0;" edge="1" parent="59" source="43" target="120">
                    <mxGeometry relative="1" as="geometry">
                        <mxPoint x="-180" y="860" as="targetPoint"/>
                        <Array as="points">
                            <mxPoint x="340" y="780"/>
                            <mxPoint x="340" y="1000"/>
                            <mxPoint x="-220" y="1000"/>
                        </Array>
                    </mxGeometry>
                </mxCell>
                <mxCell id="74" style="edgeStyle=orthogonalEdgeStyle;rounded=0;html=1;exitX=0.5;exitY=1;exitDx=0;exitDy=0;entryX=0;entryY=0.5;entryDx=0;entryDy=0;fontColor=#000000;startArrow=none;startFill=0;strokeColor=#000000;strokeWidth=3;elbow=vertical;" edge="1" parent="59" source="36" target="56">
                    <mxGeometry relative="1" as="geometry"/>
                </mxCell>
                <mxCell id="76" value="Fail" style="edgeLabel;html=1;align=center;verticalAlign=middle;resizable=0;points=[];fontColor=#000000;labelBackgroundColor=none;" vertex="1" connectable="0" parent="74">
                    <mxGeometry x="-0.0614" y="1" relative="1" as="geometry">
                        <mxPoint x="21" y="-9" as="offset"/>
                    </mxGeometry>
                </mxCell>
                <mxCell id="75" style="edgeStyle=orthogonalEdgeStyle;rounded=0;html=1;exitX=1;exitY=0.5;exitDx=0;exitDy=0;fontColor=#000000;startArrow=none;startFill=0;strokeColor=#000000;strokeWidth=3;elbow=vertical;entryX=0.5;entryY=1;entryDx=0;entryDy=0;" edge="1" parent="59" source="21" target="120">
                    <mxGeometry relative="1" as="geometry">
                        <mxPoint x="-190" y="910" as="targetPoint"/>
                        <Array as="points">
                            <mxPoint x="340" y="580"/>
                            <mxPoint x="340" y="1000"/>
                            <mxPoint x="-220" y="1000"/>
                        </Array>
                    </mxGeometry>
                </mxCell>
                <mxCell id="79" value="Success" style="edgeLabel;html=1;align=center;verticalAlign=middle;resizable=0;points=[];fontColor=#000000;labelBackgroundColor=none;" vertex="1" connectable="0" parent="75">
                    <mxGeometry x="-0.8813" relative="1" as="geometry">
                        <mxPoint x="-25" y="-23" as="offset"/>
                    </mxGeometry>
                </mxCell>
                <mxCell id="110" style="edgeStyle=orthogonalEdgeStyle;rounded=0;html=1;fontSize=12;fontColor=#000000;startArrow=none;startFill=0;strokeColor=#000000;strokeWidth=3;elbow=vertical;exitX=1;exitY=0.5;exitDx=0;exitDy=0;" edge="1" parent="59" source="18" target="89">
                    <mxGeometry relative="1" as="geometry">
                        <mxPoint x="-180" y="508" as="sourcePoint"/>
                    </mxGeometry>
                </mxCell>
                <mxCell id="111" style="edgeStyle=orthogonalEdgeStyle;rounded=0;html=1;exitX=0.5;exitY=1;exitDx=0;exitDy=0;entryX=0.5;entryY=0;entryDx=0;entryDy=0;fontSize=12;fontColor=#000000;startArrow=none;startFill=0;strokeColor=#000000;strokeWidth=3;elbow=vertical;" edge="1" parent="59" source="89" target="21">
                    <mxGeometry relative="1" as="geometry"/>
                </mxCell>
            </root>
        </mxGraphModel>
    </diagram>
</mxfile>